<?xml version="1.0" encoding="UTF-8"?>
<svg version="1.1" xmlns="http://www.w3.org/2000/svg" width="1080" height="1080">
<path d="M0 0 C2.69237828 -0.00115419 5.38475376 -0.00270314 8.07713127 -0.00472724 C13.8983451 -0.00831343 19.71954962 -0.00824522 25.54076385 -0.00568008 C34.19755585 -0.00187592 42.8543401 -0.00384252 51.51113206 -0.00688839 C66.9779228 -0.0121383 82.44470939 -0.01170407 97.91150051 -0.00880948 C111.44716534 -0.00628889 124.98282864 -0.00563956 138.51849365 -0.00683212 C139.41811447 -0.00690851 140.31773528 -0.00698489 141.24461733 -0.00706359 C144.89693587 -0.00737496 148.54925441 -0.00769336 152.20157295 -0.00802336 C186.42772882 -0.01107888 220.65388205 -0.00831442 254.88003752 -0.00292646 C285.25417356 0.00181876 315.6283054 0.00139411 346.00244141 -0.00338745 C380.16802853 -0.00874796 414.33361333 -0.01086214 448.49920082 -0.00777519 C452.14466985 -0.00745449 455.79013888 -0.00714165 459.43560791 -0.00683212 C460.33314356 -0.00675305 461.2306792 -0.00667397 462.1554129 -0.00659249 C475.67894697 -0.00545745 489.20247935 -0.00678076 502.72601318 -0.00931168 C518.11067426 -0.01217663 533.49533057 -0.01144398 548.87999105 -0.00603093 C557.47864301 -0.0031049 566.07728462 -0.00288808 574.6759363 -0.00667711 C580.43237559 -0.00893287 586.18880664 -0.00749997 591.94524471 -0.00317234 C595.21631019 -0.00081251 598.48735142 -0.00050157 601.75841689 -0.00357832 C640.91964395 -0.03756913 640.91964395 -0.03756913 657.03955078 2.87698364 C658.04139404 3.05253784 659.0432373 3.22809204 660.07543945 3.40896606 C702.87734673 11.17784033 741.70354883 30.83912063 772.97705078 61.12698364 C773.50395508 61.62810669 774.03085937 62.12922974 774.57373047 62.64553833 C816.02448199 102.12830165 837.2321753 157.49184126 838.97705078 214.12698364 C839.14574173 223.09575722 839.11245895 232.06644632 839.10403442 241.03640747 C839.10518843 243.72863539 839.10673722 246.42086051 839.10876167 249.11308765 C839.11234987 254.93704456 839.11227838 260.76099218 839.10971451 266.58494949 C839.10591224 275.24578294 839.10787598 283.90660863 839.11092282 292.56744203 C839.11617417 308.04095343 839.11573791 323.51446068 839.1128439 338.98797247 C839.11032381 352.52947802 839.10967376 366.07098206 839.11086655 379.61248779 C839.11094293 380.51232247 839.11101932 381.41215715 839.11109802 382.33925954 C839.11140938 385.99240064 839.11172778 389.64554173 839.11205778 393.29868283 C839.11511364 427.53602824 839.1123483 461.77337103 839.10696088 496.01071604 C839.10221563 526.39810613 839.10264027 556.78549203 839.10742188 587.17288208 C839.11278181 621.34943932 839.11489688 655.52599424 839.11180961 689.70255184 C839.11148892 693.34886106 839.11117607 696.99517027 839.11086655 700.64147949 C839.11078747 701.53922906 839.11070839 702.43697863 839.11062692 703.36193273 C839.10949163 716.89165941 839.11081564 730.4213844 839.1133461 743.95111084 C839.11621039 759.34204638 839.1154798 774.73297715 839.11006536 790.1239121 C839.10713822 798.72721277 839.10692412 807.3305031 839.11071153 815.9338035 C839.11296595 821.69210056 839.11153677 827.45038937 839.10720676 833.20868522 C839.10484511 836.48164962 839.1045388 839.75458975 839.10761274 843.02755415 C839.14010588 880.51655737 839.14010588 880.51655737 836.22705078 897.62698364 C836.05149658 898.68030884 835.87594238 899.73363403 835.69506836 900.81887817 C829.80265091 934.85306877 816.16609019 967.29383188 794.91845703 994.62307739 C793.20815757 996.82891634 791.61139512 999.07191746 790.03955078 1001.37698364 C789.35892578 1002.28448364 788.67830078 1003.19198364 787.97705078 1004.12698364 C787.31705078 1004.12698364 786.65705078 1004.12698364 785.97705078 1004.12698364 C785.7244751 1004.70263062 785.47189941 1005.27827759 785.21166992 1005.87136841 C777.6148901 1019.75047634 760.73064667 1031.14349659 747.97705078 1040.12698364 C747.05859375 1040.7885144 747.05859375 1040.7885144 746.12158203 1041.46340942 C701.57009084 1073.43949326 651.30061316 1080.30414475 597.95410156 1080.25396729 C595.26172328 1080.25512148 592.5693478 1080.25667043 589.87697029 1080.25869453 C584.05575647 1080.26228071 578.23455194 1080.26221251 572.41333771 1080.25964737 C563.75654571 1080.25584321 555.09976146 1080.25780981 546.4429695 1080.26085568 C530.97617876 1080.26610559 515.50939217 1080.26567135 500.04260105 1080.26277676 C486.50693623 1080.26025618 472.97127292 1080.25960685 459.43560791 1080.26079941 C458.5359871 1080.26087579 457.63636628 1080.26095218 456.70948423 1080.26103088 C453.05716569 1080.26134224 449.40484715 1080.26166065 445.75252862 1080.26199064 C411.52637275 1080.26504616 377.30021951 1080.2622817 343.07406405 1080.25689374 C312.69992801 1080.25214853 282.32579616 1080.25257317 251.95166016 1080.25735474 C217.78607303 1080.26271525 183.62048823 1080.26482942 149.45490074 1080.26174247 C145.80943171 1080.26142178 142.16396268 1080.26110894 138.51849365 1080.26079941 C137.62095801 1080.26072033 136.72342236 1080.26064125 135.79868867 1080.26055978 C122.2751546 1080.25942473 108.75162221 1080.26074805 95.22808838 1080.26327896 C79.8434273 1080.26614391 64.458771 1080.26541127 49.07411051 1080.25999822 C40.47545855 1080.25707219 31.87681694 1080.25685536 23.27816526 1080.26064439 C17.52172598 1080.26290016 11.76529493 1080.26146725 6.00885686 1080.25713962 C2.73779137 1080.2547798 -0.53324986 1080.25446886 -3.80431533 1080.25754561 C-42.96554239 1080.29153642 -42.96554239 1080.29153642 -59.08544922 1077.37698364 C-60.08729248 1077.20142944 -61.08913574 1077.02587524 -62.12133789 1076.84500122 C-104.92324517 1069.07612695 -143.74944727 1049.41484666 -175.02294922 1019.12698364 C-175.81330566 1018.37529907 -175.81330566 1018.37529907 -176.61962891 1017.60842896 C-218.07038043 978.12566563 -239.27807374 922.76212603 -241.02294922 866.12698364 C-241.19164017 857.15821006 -241.15835739 848.18752097 -241.14993286 839.21755981 C-241.15108687 836.52533189 -241.15263566 833.83310678 -241.15466011 831.14087963 C-241.1582483 825.31692272 -241.15817682 819.49297511 -241.15561295 813.66901779 C-241.15181067 805.00818435 -241.15377442 796.34735866 -241.15682125 787.68652526 C-241.16207261 772.21301386 -241.16163635 756.7395066 -241.15874234 741.26599482 C-241.15622225 727.72448927 -241.15557219 714.18298523 -241.15676498 700.64147949 C-241.15684137 699.74164481 -241.15691775 698.84181014 -241.15699645 697.91470774 C-241.15730782 694.26156665 -241.15762622 690.60842555 -241.15795622 686.95528446 C-241.16101208 652.71793904 -241.15824673 618.48059626 -241.15285932 584.24325125 C-241.14811407 553.85586116 -241.14853871 523.46847526 -241.15332031 493.08108521 C-241.15868024 458.90452796 -241.16079532 424.72797305 -241.15770805 390.55141544 C-241.15738735 386.90510623 -241.15707451 383.25879701 -241.15676498 379.61248779 C-241.15668591 378.71473822 -241.15660683 377.81698865 -241.15652536 376.89203455 C-241.15539007 363.36230788 -241.15671407 349.83258289 -241.15924454 336.30285645 C-241.16210883 320.91192091 -241.16137824 305.52099014 -241.15596379 290.13005519 C-241.15303666 281.52675451 -241.15282255 272.92346418 -241.15660997 264.32016378 C-241.15886439 258.56186673 -241.15743521 252.80357791 -241.1531052 247.04528207 C-241.15074355 243.77231766 -241.15043724 240.49937753 -241.15351118 237.22641313 C-241.18600432 199.73740991 -241.18600432 199.73740991 -238.27294922 182.62698364 C-238.09739502 181.57365845 -237.92184082 180.52033325 -237.7409668 179.43508911 C-231.84854935 145.40089852 -218.21198863 112.9601354 -196.96435547 85.63088989 C-195.254056 83.42505094 -193.65729355 81.18204982 -192.08544922 78.87698364 C-191.40482422 77.96948364 -190.72419922 77.06198364 -190.02294922 76.12698364 C-189.36294922 76.12698364 -188.70294922 76.12698364 -188.02294922 76.12698364 C-187.77037354 75.55133667 -187.51779785 74.9756897 -187.25756836 74.38259888 C-179.66078853 60.50349095 -162.77654511 49.11047069 -150.02294922 40.12698364 C-149.41064453 39.68596313 -148.79833984 39.24494263 -148.16748047 38.79055786 C-103.61598928 6.81447402 -53.3465116 -0.05017746 0 0 Z M-18.02294922 412.12698364 C-18.02294922 545.77698364 -18.02294922 679.42698364 -18.02294922 817.12698364 C-17.69294922 817.12698364 -17.36294922 817.12698364 -17.02294922 817.12698364 C-17.02294922 683.47698364 -17.02294922 549.82698364 -17.02294922 412.12698364 C-17.35294922 412.12698364 -17.68294922 412.12698364 -18.02294922 412.12698364 Z M-44.02294922 829.12698364 C-43.02294922 832.12698364 -43.02294922 832.12698364 -43.02294922 832.12698364 Z M-17.02294922 834.12698364 C-16.02294922 836.12698364 -16.02294922 836.12698364 -16.02294922 836.12698364 Z M537.97705078 836.12698364 C538.97705078 839.12698364 538.97705078 839.12698364 538.97705078 839.12698364 Z M-45.02294922 841.12698364 C-44.02294922 843.12698364 -44.02294922 843.12698364 -44.02294922 843.12698364 Z M536.97705078 850.12698364 C537.97705078 852.12698364 537.97705078 852.12698364 537.97705078 852.12698364 Z M-132.02294922 913.12698364 C-132.02294922 920.05698364 -132.02294922 926.98698364 -132.02294922 934.12698364 C-131.69294922 934.12698364 -131.36294922 934.12698364 -131.02294922 934.12698364 C-131.02294922 927.19698364 -131.02294922 920.26698364 -131.02294922 913.12698364 C-131.35294922 913.12698364 -131.68294922 913.12698364 -132.02294922 913.12698364 Z M-84.02294922 931.12698364 C-84.02294922 931.45698364 -84.02294922 931.78698364 -84.02294922 932.12698364 C-77.42294922 932.12698364 -70.82294922 932.12698364 -64.02294922 932.12698364 C-64.02294922 931.79698364 -64.02294922 931.46698364 -64.02294922 931.12698364 C-70.62294922 931.12698364 -77.22294922 931.12698364 -84.02294922 931.12698364 Z M6.97705078 931.12698364 C6.97705078 931.45698364 6.97705078 931.78698364 6.97705078 932.12698364 C14.23705078 932.12698364 21.49705078 932.12698364 28.97705078 932.12698364 C28.97705078 931.79698364 28.97705078 931.46698364 28.97705078 931.12698364 C21.71705078 931.12698364 14.45705078 931.12698364 6.97705078 931.12698364 Z " fill="#000000" transform="translate(241.02294921875,-0.126983642578125)"/>
<path d="M0 0 C5.18396351 0.12255849 10.36788133 0.24623283 15.55175781 0.37231445 C17.30044184 0.41456008 19.04913914 0.45626093 20.79785156 0.49731445 C23.37048412 0.55782062 25.94306334 0.62014542 28.515625 0.68359375 C29.87142921 0.7169558 29.87142921 0.7169558 31.25462341 0.75099182 C36.27457875 0.88135812 41.29140778 1.04533789 46.30883789 1.25170898 C64.25232726 1.98374253 82.16771495 2.18772817 100.12329102 2.18530273 C103.31670847 2.18522185 106.50998128 2.19212858 109.70336914 2.20581055 C129.00313769 2.28721541 148.19744606 1.93383898 167.46214294 0.70195007 C176.66089098 0.12046004 185.78098435 -0.11944951 195 0 C195.43119141 1.1432373 195.86238281 2.28647461 196.30664062 3.46435547 C204.0486472 23.98801481 211.80177456 44.50714617 219.625 65 C226.29822865 82.48186526 232.90448152 99.9887163 239.5 117.5 C246.61217768 136.38239403 253.74554245 155.25625836 260.94018555 174.10742188 C266.34592671 188.2724907 271.72630655 202.44710706 277.10120773 216.62390518 C284.22695203 235.41867151 291.35760232 254.21155496 298.5 273 C305.81092473 292.23226603 313.11036335 311.46887065 320.40576172 330.70703125 C326.76411583 347.47378752 333.12829904 364.23831137 339.5 381 C346.8108624 400.23228976 354.11036333 419.46887059 361.40576172 438.70703125 C367.76411583 455.47378752 374.12829904 472.23831137 380.5 489 C386.87339912 505.76615589 393.23920378 522.53517545 399.59918213 539.306427 C400.98884579 542.9705894 402.37887994 546.63461102 403.76904297 550.29858398 C407.89183798 561.16525337 412.01332468 572.03240226 416.12579346 582.90298462 C417.87587301 587.52791244 419.62794163 592.1520852 421.38037109 596.77612305 C422.20031257 598.94113525 423.01934569 601.10649171 423.83740234 603.2722168 C424.96477545 606.25659137 426.09531797 609.23974742 427.2265625 612.22265625 C427.55161774 613.08560806 427.87667297 613.94855988 428.21157837 614.83766174 C430.29259131 620.31253304 432.56633552 625.67260091 435 631 C435.20313309 630.45831177 435.40626617 629.91662354 435.61555481 629.35852051 C435.90718002 628.58085327 436.19880524 627.80318604 436.49926758 627.00195312 C436.83366852 626.11021393 437.16806946 625.21847473 437.51260376 624.29971313 C438.28593067 622.23751499 439.05926686 620.17532032 439.83261108 618.11312866 C441.86393744 612.69637319 443.89517994 607.27958632 445.92609501 601.86267662 C447.16161338 598.56728495 448.39719745 595.27191792 449.6328125 591.9765625 C450.01557248 590.95574774 450.01557248 590.95574774 450.40606499 589.91431046 C454.15818318 579.90783883 457.9136023 569.90261068 461.67084885 559.89806366 C473.77832544 527.65730808 485.84006815 495.40033134 497.81552124 463.11029053 C505.74377016 441.73373382 513.72114109 420.37621901 521.7388916 399.03308105 C529.93776299 377.20692367 538.07896997 355.35987485 546.1875 333.5 C554.33452288 311.53635186 562.51584765 289.5863945 570.75601196 267.6574707 C578.34530434 247.45664399 585.86822444 227.23159708 593.375 207 C606.95678036 170.39558765 606.95678036 170.39558765 613.5 153 C619.9537228 135.84040916 626.33626239 118.65454374 632.71614456 101.46740341 C634.11641239 97.6953766 635.51706834 93.92349392 636.91772461 90.15161133 C637.19492875 89.40510409 637.47213289 88.65859686 637.75773716 87.88946819 C638.87994758 84.86737475 640.00217077 81.84528606 641.12440681 78.82320213 C641.96705918 76.55401225 642.80970298 74.28481919 643.65234375 72.015625 C643.92947173 71.26934247 644.20659971 70.52305994 644.49212551 69.75416279 C645.88238498 66.01019767 647.27244314 62.26615801 648.66210938 58.52197266 C651.56006051 50.71407702 654.45937449 42.90669378 657.36334133 35.10103321 C658.5798652 31.8309414 659.79542883 28.56050044 661.00857544 25.28915405 C662.33738 21.70598421 663.67042211 18.12439991 665.00390625 14.54296875 C665.39739258 13.47989502 665.79087891 12.41682129 666.19628906 11.3215332 C666.73249878 9.88463135 666.73249878 9.88463135 667.27954102 8.41870117 C667.58972672 7.58392746 667.89991241 6.74915375 668.21949768 5.88908386 C669 4 669 4 670 3 C671.42048388 2.89664661 672.8460411 2.86205491 674.27026367 2.85523987 C675.65541168 2.84489212 675.65541168 2.84489212 677.06854248 2.83433533 C678.09135315 2.83172195 679.11416382 2.82910858 680.16796875 2.82641602 C681.24032776 2.819729 682.31268677 2.81304199 683.4175415 2.80615234 C685.76539955 2.79204096 688.11327181 2.78016665 690.46115112 2.77020454 C694.2300899 2.75371997 697.99893191 2.73045372 701.76782227 2.70530701 C712.49295322 2.63491795 723.2181277 2.57589476 733.94335938 2.52319336 C741.77480587 2.48371912 749.60616027 2.4357686 757.4375 2.37890625 C758.72934204 2.3695467 760.02118408 2.36018715 761.35217285 2.35054398 C781.15941996 2.19308725 800.92676464 1.65929084 820.71069336 0.68275452 C833.82464901 0.04551531 846.8681675 -0.07824109 860 0 C860 7.26 860 14.52 860 22 C856.349375 22.185625 856.349375 22.185625 852.625 22.375 C816.0117023 24.240142 816.0117023 24.240142 786 43 C781.35574215 49.16616053 778.80582617 55.5464222 777 63 C776.81824219 63.65871094 776.63648438 64.31742187 776.44921875 64.99609375 C772.34835736 81.05519215 772.71346238 97.93798284 772.75276184 114.37294006 C772.75117082 116.8017426 772.74870433 119.23054469 772.74544543 121.65934557 C772.740396 126.91079477 772.74146971 132.16220466 772.7481308 137.41365051 C772.75800885 145.2230738 772.7563006 153.03246571 772.7523805 160.84189274 C772.7461246 173.98751324 772.7492551 187.13311575 772.75797462 200.27873421 C772.76660649 213.29544301 772.77149437 226.31214372 772.77130699 239.32885551 C772.77129935 240.14032299 772.7712917 240.95179046 772.77128382 241.78784786 C772.77124291 245.08225812 772.77117729 248.37666838 772.77107801 251.67107864 C772.77017299 282.54277363 772.78010062 313.41445632 772.79550768 344.28614705 C772.80913168 371.68596506 772.81536884 399.08577434 772.81469727 426.4855957 C772.81465685 428.24520431 772.81461649 430.00481292 772.81457619 431.76442153 C772.81455584 432.63435837 772.81453548 433.50429521 772.81451452 434.40059378 C772.81441371 438.78017776 772.81432313 443.15976175 772.81424427 447.53934574 C772.8142192 448.83551788 772.8142192 448.83551788 772.81419362 450.15787532 C772.81382807 473.08564554 772.81837123 496.01341467 772.82457083 518.94118398 C772.82490124 520.16530499 772.82490124 520.16530499 772.82523832 521.41415571 C772.8261265 524.69544337 772.82701492 527.97673104 772.82792928 531.25801869 C772.83108291 542.65080782 772.83259772 554.04359609 772.83304077 565.43638563 C772.83363907 580.12077763 772.83765735 594.80516244 772.84747223 609.48955137 C772.85256829 617.24676683 772.85500295 625.00397177 772.85347604 632.76118882 C772.8526502 638.56513942 772.85708902 644.36907675 772.86352655 650.1730234 C772.86532966 652.5119372 772.86548021 654.85085302 772.86375926 657.18976689 C771.69453648 698.74649446 771.69453648 698.74649446 789.55078125 734.640625 C800.60180581 745.08503008 816.87892925 747.23083061 831.3125 749.125 C832.52873047 749.29386719 833.74496094 749.46273437 834.99804688 749.63671875 C843.33200706 750.76089607 851.60801437 751.47179538 860 752 C860 759.26 860 766.52 860 774 C855.85406955 773.85661609 851.70827262 773.71032691 847.5625 773.5625 C846.41716797 773.52318359 845.27183594 773.48386719 844.09179688 773.44335938 C837.80480961 773.21695817 831.54151327 772.90941005 825.26429749 772.48831177 C815.57611906 771.88915487 805.9083684 771.85890293 796.20483398 771.87060547 C794.28429634 771.86924665 792.36375895 771.86746403 790.44322205 771.86529541 C785.28269254 771.86078101 780.12218328 771.86248494 774.96165347 771.8656745 C769.53889335 771.86822605 764.11613483 771.86585313 758.69337463 771.86428833 C749.60116264 771.86247614 740.5089588 771.86484937 731.41674805 771.86962891 C720.91751373 771.87508446 710.4182988 771.87329568 699.91906494 771.8678025 C690.8766321 771.86326181 681.83420508 771.86262507 672.79177147 771.86524117 C667.40272171 771.86679678 662.01368105 771.86701705 656.62463188 771.86370468 C651.56593099 771.86081157 646.5072551 771.86282814 641.4485569 771.86859894 C639.59584978 771.86991817 637.74314054 771.86954666 635.89043427 771.86733627 C633.35644765 771.86459219 630.82254055 771.8680454 628.28855896 771.87301636 C627.56083186 771.87078564 626.83310476 771.86855491 626.08332533 771.86625659 C621.29503504 771.88440079 616.73335024 772.35697666 612 773 C609.48072682 773.13779323 606.95946623 773.2428489 604.4375 773.31640625 C603.76074219 773.33718735 603.08398438 773.35796844 602.38671875 773.37937927 C600.25789998 773.44394913 598.12897475 773.50332156 596 773.5625 C594.54295843 773.60577365 593.08592701 773.6493905 591.62890625 773.69335938 C588.08604411 773.80016921 584.54308415 773.89992491 581 774 C581 766.74 581 759.48 581 752 C583.95646484 751.76216797 583.95646484 751.76216797 586.97265625 751.51953125 C623.12799187 749.54938701 623.12799187 749.54938701 654.0390625 733.33203125 C663.58556443 721.97892039 666.87542328 705.42280007 668.12559319 690.99692345 C668.25033205 689.57574666 668.25033205 689.57574666 668.37759089 688.12585922 C669.30498296 676.56564442 669.27092315 665.01393274 669.24050903 653.42422485 C669.2413832 650.91385777 669.24313805 648.40349088 669.24568737 645.89312494 C669.24920203 640.47630535 669.24661827 635.05954421 669.23841095 629.64273071 C669.22624167 621.58839147 669.22574845 613.53407965 669.22749493 605.47973288 C669.23011092 591.92501392 669.22348508 578.3703146 669.21146011 564.81560135 C669.19959692 551.40865608 669.19192236 538.001719 669.18975449 524.59476852 C669.18961701 523.75892734 669.18947953 522.92308616 669.18933788 522.06191645 C669.18866115 517.81652642 669.18805841 513.57113639 669.18748413 509.32574634 C669.18329132 479.31172248 669.16983904 449.29770927 669.15087891 419.28369141 C669.13248897 390.13850969 669.11833209 360.99333089 669.10986328 331.84814453 C669.10960023 330.94862834 669.10933718 330.04911214 669.10906615 329.12233788 C669.10642895 320.08843598 669.10387735 311.05453406 669.10138843 302.02063212 C669.09631698 283.62006766 669.09067448 265.21950339 669.08468628 246.81893921 C669.0844117 245.97304428 669.08413712 245.12714935 669.08385422 244.25562124 C669.06547518 187.83707636 669.03374561 131.41853752 669 75 C668.80492639 75.52813199 668.60985277 76.05626398 668.40886784 76.60039997 C666.33275074 82.22103033 664.25631054 87.84154126 662.17970276 93.46199036 C661.41019446 95.54482665 660.64076193 97.62769094 659.87141418 99.71058655 C652.60734434 119.37669788 645.30233658 139.02741242 637.98388672 158.67333984 C634.98740561 166.71790523 631.99435405 174.76374678 629.00100708 182.80947876 C627.33414172 187.28970348 625.66706003 191.76984771 624 196.25 C623.33333229 198.04166628 622.66666563 199.83333295 622 201.625 C615.33333333 219.54166667 608.66666667 237.45833333 602 255.375 C601.66994965 256.26201096 601.33989929 257.14902191 600.99984741 258.06291199 C600.33369103 259.85320598 599.667533 261.64349936 599.00137329 263.43379211 C597.32688553 267.93395558 595.65242733 272.43413004 593.97802734 276.93432617 C591.07137982 284.74628734 588.16462325 292.55820762 585.25660706 300.36965942 C578.79098249 317.73755683 572.33040411 335.10731876 565.87890625 352.48046875 C565.6092165 353.20670944 565.33952675 353.93295013 565.06166458 354.68119812 C563.66979167 358.42936441 562.27794685 362.17754113 560.8861084 365.92572021 C550.67946875 393.41180598 540.45835827 420.89242146 530.21759033 448.36581421 C526.41207826 458.57578995 522.61180807 468.78771431 518.8125 479 C518.48691101 479.87514252 518.16132202 480.75028503 517.8258667 481.65194702 C516.20106841 486.01924341 514.57634385 490.38656723 512.95166016 494.75390625 C509.96922568 502.77091759 506.98608973 510.78766792 504.00302124 518.80444336 C502.33532015 523.2862854 500.66766221 527.76814349 499 532.25 C498.33333354 534.04166674 497.66666687 535.83333341 497 537.625 C496.67 538.511875 496.34 539.39875 496 540.3125 C477.00000002 591.37499994 477.00000002 591.37499994 475.99995422 594.06262207 C475.33343931 595.85388153 474.66692523 597.64514129 474.00041199 599.43640137 C472.33143027 603.92180089 470.662434 608.407195 468.9934082 612.89257812 C465.69710948 621.75118347 462.40103781 630.60987317 459.10546875 639.46875 C456.12298691 647.48593578 453.1398682 655.50288435 450.15614319 663.51960754 C448.36583174 668.3298517 446.57575452 673.14018278 444.78613281 677.95068359 C439.63866329 691.78635996 434.48520945 705.61979353 429.32440186 719.45050049 C428.41136655 721.8975058 427.49846531 724.34456072 426.58575439 726.79168701 C423.89855489 733.99611649 421.20922005 741.19974067 418.51521778 748.40162945 C417.32998331 751.57018273 416.14562496 754.73905636 414.96353149 757.90878296 C413.6527604 761.42193587 412.33855121 764.93378332 411.0234375 768.4453125 C410.62959366 769.5031041 410.23574982 770.56089569 409.82997131 771.65074158 C409.47019699 772.60920486 409.11042267 773.56766815 408.73974609 774.55517578 C408.42621185 775.39396271 408.11267761 776.23274963 407.78964233 777.09695435 C407 779 407 779 406 780 C403.13732433 780.07325168 400.299281 780.09238205 397.4375 780.0625 C396.63119141 780.05798828 395.82488281 780.05347656 394.99414062 780.04882812 C392.99606244 780.03700518 390.99802217 780.01906914 389 780 C379.90346316 757.60991032 371.23948371 735.05040347 362.52001953 712.51171875 C358.91143338 703.1852107 355.29478994 693.86182832 351.67843628 684.53833008 C349.7019307 679.44235971 347.72599535 674.34616823 345.75 669.25 C344.95833604 667.20833228 344.16666937 665.16666562 343.375 663.125 C341.79166667 659.04166667 340.20833333 654.95833333 338.625 650.875 C338.03721016 649.35912292 338.03721016 649.35912292 337.43754578 647.81262207 C336.64572291 645.7705499 335.85390366 643.72847633 335.06208801 641.68640137 C333.08534073 636.5884274 331.10853113 631.49047762 329.1315918 626.39257812 C325.5401467 617.1311972 321.94919037 607.86962811 318.36050415 598.60717773 C310.59456028 578.56326589 302.82226302 558.52201025 295 538.5 C286.7694101 517.43282866 278.59463444 496.34413426 270.42333984 475.25390625 C268.02929728 469.07514192 265.63400221 462.89686373 263.23828125 456.71875 C262.8470105 455.70973633 262.45573975 454.70072266 262.0526123 453.66113281 C260.86842991 450.60741346 259.6842204 447.55370462 258.5 444.5 C254.11898821 433.2028496 249.73804516 421.90567358 245.36050415 410.60717773 C237.59456028 390.56326589 229.82226302 370.52201025 222 350.5 C213.7694101 329.43282866 205.59463444 308.34413426 197.42333984 287.25390625 C193.84555798 278.02003913 190.26492467 268.78727773 186.68447876 259.55444336 C184.70619975 254.45300855 182.72810953 249.35150053 180.75 244.25 C179.95833424 242.20833298 179.16666757 240.16666632 178.375 238.125 C176.79166667 234.04166667 175.20833333 229.95833333 173.625 225.875 C173.03721016 224.35912292 173.03721016 224.35912292 172.43754578 222.81262207 C171.64572291 220.7705499 170.85390366 218.72847633 170.06208801 216.68640137 C168.08534073 211.5884274 166.10853113 206.49047762 164.1315918 201.39257812 C160.54020202 192.13133986 156.949297 182.86991498 153.360672 173.60760498 C151.34491847 168.40495224 149.32878844 163.20244546 147.3125 158 C146.91944672 156.98578979 146.52639343 155.97157959 146.12142944 154.92663574 C141.93620437 144.12888244 137.74431502 133.33379996 133.53125 122.546875 C133.17218063 121.62749146 132.81311127 120.70810791 132.44316101 119.76086426 C130.77207117 115.48317184 129.09964403 111.20600886 127.42504883 106.9296875 C124.16906608 98.60739673 120.95081207 90.2718747 117.77416992 81.91894531 C117.40890953 80.95928864 117.04364914 79.99963196 116.66732025 79.01089478 C115.77792368 76.67403995 114.88882175 74.3370735 114 72 C113.96573084 127.37688918 113.93389388 182.75377936 113.91531372 238.13067627 C113.91489955 239.36192257 113.91489955 239.36192257 113.91447701 240.61804252 C113.90848988 258.46096118 113.9029497 276.30387995 113.89786934 294.14679889 C113.89537487 302.89815892 113.89278174 311.64951892 113.89013672 320.40087891 C113.88974444 321.70711149 113.88974444 321.70711149 113.88934424 323.03973261 C113.88083592 351.2175816 113.86582408 379.39542252 113.84740556 407.57326664 C113.8284978 436.55251022 113.81621927 465.53174935 113.81217002 494.51099901 C113.81159379 498.61298708 113.81094252 502.71497514 113.81024551 506.8169632 C113.81011067 507.62421838 113.80997582 508.43147357 113.80983689 509.26319104 C113.80748213 522.20838356 113.7982296 535.15356222 113.78633593 548.09874911 C113.77450075 561.14293199 113.77007912 574.18710125 113.77299725 587.2312893 C113.7745075 594.96167678 113.77056169 602.69201405 113.75840491 610.42239237 C113.74990877 616.22666398 113.75213772 622.03089507 113.75820221 627.83516791 C113.75903706 630.16001275 113.75659033 632.48486202 113.75023364 634.80969831 C112.43093383 682.75163486 112.43093383 682.75163486 130 726 C130.59039062 726.81210937 131.18078125 727.62421875 131.7890625 728.4609375 C150.27951262 749.69555336 187.19173756 749.62599955 213 752 C213 759.26 213 766.52 213 774 C209.83390137 773.85852539 206.66780273 773.71705078 203.40576172 773.57128906 C172.36256135 772.23335988 141.3752183 771.6793837 110.3046875 771.73925781 C104.30618418 771.75068995 98.3078579 771.74384611 92.3093605 771.73235321 C61.48615038 771.6827514 30.78230397 772.41158608 0 774 C0 766.74 0 759.48 0 752 C2.39378906 751.74476563 2.39378906 751.74476563 4.8359375 751.484375 C42.07698924 747.82724767 42.07698924 747.82724767 72.1875 727.59765625 C87.9003587 705.07814971 87.46725223 673.51798462 87.3742218 647.20529175 C87.37697062 644.81597089 87.38102968 642.42665126 87.38626546 640.03733456 C87.39565 634.22371581 87.39136471 628.41022599 87.38092325 622.59661177 C87.36918741 615.61719999 87.37515216 608.63782903 87.38149153 601.65841421 C87.39335424 587.98853931 87.38838067 574.31871087 87.37621326 560.64883858 C87.36563951 548.686707 87.36114254 536.72459119 87.36250877 524.76245499 C87.3625928 523.96620291 87.36267683 523.16995083 87.36276341 522.3495699 C87.36311571 519.11661575 87.36349974 515.88366162 87.36392899 512.65070748 C87.36788578 482.38096102 87.35521491 452.11124239 87.33440243 421.84150388 C87.31603218 394.99768177 87.31022189 368.15388632 87.31567383 341.31005859 C87.31602026 339.58590598 87.31636636 337.86175337 87.31671212 336.13760076 C87.31696861 334.85896596 87.31696861 334.85896596 87.31723029 333.55450016 C87.31808394 329.26274781 87.31890772 324.97099545 87.31969929 320.67924309 C87.31985637 319.83238804 87.32001345 318.98553299 87.32017529 318.11301567 C87.32417241 295.62478412 87.31868033 273.1365551 87.310188 250.64832509 C87.30928104 248.2263286 87.30837539 245.80433212 87.30747276 243.38233563 C87.30687166 241.77592447 87.30626304 240.16951331 87.30564686 238.56310215 C87.3014391 227.40192499 87.30084151 216.24075287 87.30275235 205.07957518 C87.30520357 190.69189283 87.30105723 176.30423744 87.28554235 161.91656242 C87.27824057 154.98711735 87.27393482 148.05770601 87.27878571 141.12825775 C87.28289526 134.77120296 87.27760356 128.41422432 87.26515963 122.05718102 C87.26225859 119.77153328 87.26262465 117.48587825 87.26680271 115.20023249 C88.19730474 74.91693749 88.19730474 74.91693749 71.4375 39.6875 C66.38688156 34.97487706 60.37595828 32.47262772 54 30 C53.21109375 29.69320312 52.4221875 29.38640625 51.609375 29.0703125 C35.2834167 23.53318678 17.02306666 23.17734798 0 22 C0 14.74 0 7.48 0 0 Z " fill="#C4AA66" transform="translate(110,160)"/>
</svg>
